<svg aria-hidden="true" style="position: absolute; width: 0; height: 0; overflow: hidden;" version="1.1" xmlns="http://www.w3.org/2000/svg" xmlns:xlink="http://www.w3.org/1999/xlink">
<defs>
<symbol id="icon-svg-hero" viewBox="0 0 37 32">
<path fill="#fdc435" style="fill: var(--color1, #fdc435)" d="M21.711-12.583c5.050 0.24 10.361 2.116 13.444 6.023 2.851 3.612 0.935 8.742 1.75 13.23 0.655 3.609 3.098 6.809 2.544 10.434-0.614 4.015-2.572 7.847-5.742 10.479-3.32 2.756-7.718 5.073-11.995 4.247-4.146-0.8-5.437-6.046-8.98-8.294-3.876-2.46-10.633-1.112-12.404-5.277-1.735-4.080 3.944-7.665 5.081-11.94 1.26-4.736-1.358-10.459 1.871-14.203 3.346-3.88 9.239-4.946 14.431-4.699z"></path>
</symbol>
</defs>
</svg>
